<?xml version="1.0" encoding="utf-8"?>
<svg viewBox="414.853 28.359 464 392" xmlns="http://www.w3.org/2000/svg">
  <path d="M 878.853 204.359 C 878.853 301.406 774.775 380.359 646.853 380.359 C 630.974 380.37 615.122 379.109 599.447 376.589 C 572.357 393.695 521.915 420.359 470.853 420.359 L 449.814 420.359 L 465.54 406.374 C 484.622 389.277 502.509 370.894 519.076 351.351 C 454.525 319.015 414.853 263.429 414.853 204.359 C 414.853 107.312 518.931 28.359 646.853 28.359 C 774.775 28.359 878.853 107.312 878.853 204.359 Z M 558.853 212.359 L 574.853 212.359 L 574.853 196.359 L 558.853 196.359 Z M 718.853 212.359 L 734.853 212.359 L 734.853 196.359 L 718.853 196.359 Z M 637.687 212.546 L 653.687 212.546 L 653.687 196.546 L 637.687 196.546 Z" style="fill: rgb(255, 255, 255);"/>
</svg>