<?xml version="1.0" encoding="utf-8"?>
<svg viewBox="421.645 132.999 233.633 168.734" xmlns="http://www.w3.org/2000/svg">
  <path d="M 270.94 171.189 L 56.776 171.189 C 51.402 171.189 47.041 166.828 47.041 161.454 C 47.041 156.08 51.402 151.719 56.776 151.719 L 270.94 151.719 C 276.313 151.719 280.674 156.08 280.674 161.454 C 280.674 166.828 276.313 171.189 270.94 171.189 Z M 270.94 171.189" style="fill: rgb(227, 234, 79);" transform="matrix(1, 0, 0, 1, 374.604034, 55.912968)"/>
  <path d="M 270.94 96.555 L 56.776 96.555 C 51.402 96.555 47.041 92.194 47.041 86.82 C 47.041 81.447 51.402 77.086 56.776 77.086 L 270.94 77.086 C 276.313 77.086 280.674 81.447 280.674 86.82 C 280.674 92.194 276.313 96.555 270.94 96.555 Z M 270.94 96.555" style="fill: rgb(227, 234, 79);" transform="matrix(1, 0, 0, 1, 374.604034, 55.912968)"/>
  <path d="M 270.94 245.82 L 56.776 245.82 C 51.402 245.82 47.041 241.459 47.041 236.085 C 47.041 230.712 51.402 226.351 56.776 226.351 L 270.94 226.351 C 276.313 226.351 280.674 230.712 280.674 236.085 C 280.674 241.459 276.313 245.82 270.94 245.82 Z M 270.94 245.82" style="fill: rgb(227, 234, 79);" transform="matrix(1, 0, 0, 1, 374.604034, 55.912968)"/>
</svg>