<?xml version="1.0" encoding="utf-8"?>
<svg viewBox="143.088 106.802 31.522 16" xmlns="http://www.w3.org/2000/svg" xmlns:bx="https://boxy-svg.com">
  <g transform="matrix(1, 0, 0, 1, 151.090912, 106.801865)">
    <g>
      <path d="M8 10C6.3 10 5 8.7 5 7C5 6.6 5 3.4 5 3C5 1.4 6.3 0 8 0C8 0 8 0 8 0C9.6 0 11 1.3 11 3C11 3.4 11 6.6 11 7C11 8.6 9.6 10 8 10C8 10 8 10 8 10Z" transform="matrix(1, 0, 0, 1, 0, 0)" opacity="1" fill-opacity="1" style="fill: rgb(255, 255, 255);"/>
      <g>
        <path d="M8 10C6.3 10 5 8.7 5 7C5 6.6 5 3.4 5 3C5 1.4 6.3 0 8 0C8 0 8 0 8 0C9.6 0 11 1.3 11 3C11 3.4 11 6.6 11 7C11 8.6 9.6 10 8 10C8 10 8 10 8 10Z" transform="matrix(1, 0, 0, 1, 0, 0)" opacity="1" fill-opacity="0" stroke="#000000" stroke-width="1" stroke-opacity="0" style="fill: rgb(255, 255, 255);"/>
      </g>
    </g>
    <g>
      <path d="M12 7.5C12 9.4 10.2 11 8.2 11C8.16 11 7.84 11 7.8 11C5.8 11 4 9.4 4 7.5C4 7.25 4 5.25 4 5C3.4 5 3 5.4 3 6C3 6.15 3 7.35 3 7.5C3 9.7 4.8 11.6 7 11.9C7 12.11 7 13.79 7 14C4 14 4.5 16 4.5 16C5.2 16 10.8 16 11.5 16C11.5 16 12 14 9 14C9 13.79 9 12.11 9 11.9C11.2 11.5 13 9.7 13 7.5C13 7.35 13 6.15 13 6C13 5.4 12.6 5 12 5C12 5.5 12 7.25 12 7.5Z" transform="matrix(1, 0, 0, 1, 0, 0)" opacity="1" fill-opacity="1" style="fill: rgb(255, 255, 255);"/>
      <g>
        <path d="M12 7.5C12 9.4 10.2 11 8.2 11C8.16 11 7.84 11 7.8 11C5.8 11 4 9.4 4 7.5C4 7.25 4 5.25 4 5C3.4 5 3 5.4 3 6C3 6.15 3 7.35 3 7.5C3 9.7 4.8 11.6 7 11.9C7 12.11 7 13.79 7 14C4 14 4.5 16 4.5 16C5.2 16 10.8 16 11.5 16C11.5 16 12 14 9 14C9 13.79 9 12.11 9 11.9C11.2 11.5 13 9.7 13 7.5C13 7.35 13 6.15 13 6C13 5.4 12.6 5 12 5C12 5.5 12 7.25 12 7.5Z" transform="matrix(1, 0, 0, 1, 0, 0)" opacity="1" fill-opacity="0" stroke="#000000" stroke-width="1" stroke-opacity="0" style="fill: rgb(255, 255, 255);"/>
      </g>
    </g>
  </g>
  <path style="fill: none;" transform="matrix(0.999971, 0.007576, -0.007576, 0.999971, -707.582581, -331.778015)" d="M 875.967 433.762 A 6.541 6.541 0 0 1 875.967 446.238 A 8.208 8.208 0 0 0 875.967 433.762 Z" bx:shape="crescent 874 440 6.541 145 0.87 1@81e3c84b"/>
  <path style="fill: none;" transform="matrix(0.999971, 0.007576, -0.007576, 0.999971, -704.198792, -331.764862)" d="M 876.438 432.267 A 8.108 8.108 0 0 1 876.438 447.733 A 10.175 10.175 0 0 0 876.438 432.267 Z" bx:shape="crescent 874 440 8.108 145 0.87 1@5eb7bc5b"/>
  <path style="fill: none;" transform="matrix(-1.043632, -0.007907, -0.007576, 0.999971, 1070.608154, -318.169891)" d="M 875.967 433.762 A 6.541 6.541 0 0 1 875.967 446.238 A 8.208 8.208 0 0 0 875.967 433.762 Z" bx:shape="crescent 874 440 6.541 145 0.87 1@81e3c84b"/>
  <path style="fill: none;" transform="matrix(-1.043632, -0.007907, -0.007576, 0.999971, 1067.076904, -318.209137)" d="M 876.438 432.267 A 8.108 8.108 0 0 1 876.438 447.733 A 10.175 10.175 0 0 0 876.438 432.267 Z" bx:shape="crescent 874 440 8.108 145 0.87 1@5eb7bc5b"/>
</svg>