<?xml version="1.0" encoding="utf-8"?>
<svg viewBox="288.289 -17.655 469.334 512" xmlns="http://www.w3.org/2000/svg">
  <g transform="matrix(1, 0, 0, 1, 288.288544, -17.655006)">
    <g>
      <path d="M181.333,0H74.667c-17.643,0-32,14.357-32,32v448c0,17.643,14.357,32,32,32h106.667c17.643,0,32-14.357,32-32V32 C213.333,14.357,198.976,0,181.333,0z" style="fill: rgb(255, 255, 255);"/>
    </g>
  </g>
  <g transform="matrix(1, 0, 0, 1, 288.288544, -17.655006)">
    <g>
      <path d="M437.333,0H330.667c-17.643,0-32,14.357-32,32v448c0,17.643,14.357,32,32,32h106.667c17.643,0,32-14.357,32-32V32 C469.333,14.357,454.976,0,437.333,0z" style="fill: rgb(255, 255, 255);"/>
    </g>
  </g>
  <g transform="matrix(1, 0, 0, 1, 288.288544, -17.655006)"/>
  <g transform="matrix(1, 0, 0, 1, 288.288544, -17.655006)"/>
  <g transform="matrix(1, 0, 0, 1, 288.288544, -17.655006)"/>
  <g transform="matrix(1, 0, 0, 1, 288.288544, -17.655006)"/>
  <g transform="matrix(1, 0, 0, 1, 288.288544, -17.655006)"/>
  <g transform="matrix(1, 0, 0, 1, 288.288544, -17.655006)"/>
  <g transform="matrix(1, 0, 0, 1, 288.288544, -17.655006)"/>
  <g transform="matrix(1, 0, 0, 1, 288.288544, -17.655006)"/>
  <g transform="matrix(1, 0, 0, 1, 288.288544, -17.655006)"/>
  <g transform="matrix(1, 0, 0, 1, 288.288544, -17.655006)"/>
  <g transform="matrix(1, 0, 0, 1, 288.288544, -17.655006)"/>
  <g transform="matrix(1, 0, 0, 1, 288.288544, -17.655006)"/>
  <g transform="matrix(1, 0, 0, 1, 288.288544, -17.655006)"/>
  <g transform="matrix(1, 0, 0, 1, 288.288544, -17.655006)"/>
  <g transform="matrix(1, 0, 0, 1, 288.288544, -17.655006)"/>
</svg>