<?xml version="1.0" encoding="utf-8"?>
<svg viewBox="422.168 67.272 304 320.001" xmlns="http://www.w3.org/2000/svg">
  <path d="M 718.008 213.321 L 462.008 69.321 C 457.048 66.537 451 66.601 446.104 69.449 C 441.176 72.329 438.168 77.577 438.168 83.273 L 438.168 371.273 C 438.168 376.969 441.176 382.217 446.104 385.097 C 448.6 386.537 451.384 387.273 454.168 387.273 C 456.856 387.273 459.576 386.601 462.008 385.225 L 718.008 241.225 C 723.032 238.377 726.168 233.065 726.168 227.273 C 726.168 221.481 723.032 216.169 718.008 213.321 Z" style="fill: rgb(255, 255, 255);"/>
  <g transform="matrix(1, 0, 0, 1, 422.167847, 67.272049)"/>
  <g transform="matrix(1, 0, 0, 1, 422.167847, 67.272049)"/>
  <g transform="matrix(1, 0, 0, 1, 422.167847, 67.272049)"/>
  <g transform="matrix(1, 0, 0, 1, 422.167847, 67.272049)"/>
  <g transform="matrix(1, 0, 0, 1, 422.167847, 67.272049)"/>
  <g transform="matrix(1, 0, 0, 1, 422.167847, 67.272049)"/>
  <g transform="matrix(1, 0, 0, 1, 422.167847, 67.272049)"/>
  <g transform="matrix(1, 0, 0, 1, 422.167847, 67.272049)"/>
  <g transform="matrix(1, 0, 0, 1, 422.167847, 67.272049)"/>
  <g transform="matrix(1, 0, 0, 1, 422.167847, 67.272049)"/>
  <g transform="matrix(1, 0, 0, 1, 422.167847, 67.272049)"/>
  <g transform="matrix(1, 0, 0, 1, 422.167847, 67.272049)"/>
  <g transform="matrix(1, 0, 0, 1, 422.167847, 67.272049)"/>
  <g transform="matrix(1, 0, 0, 1, 422.167847, 67.272049)"/>
  <g transform="matrix(1, 0, 0, 1, 422.167847, 67.272049)"/>
</svg>